{
    "accessors": {
        "accessor_buffer_Cube_Cube.002_0": {
            "bufferView": "bufferView_buffer_Cube_Cube.002_0",
            "byteOffset": 0,
            "byteStride": 24,
            "componentType": 5126,
            "count": 16,
            "max": [
                1.414214015007019,
                1.414214015007019,
                2.0999999046325684
            ],
            "min": [
                -1.414214015007019,
                -1.414214015007019,
                -1.6292099758175027e-07
            ],
            "type": "VEC3"
        },
        "accessor_buffer_Cube_Cube.002_1": {
            "bufferView": "bufferView_buffer_Cube_Cube.002_0",
            "byteOffset": 12,
            "byteStride": 24,
            "componentType": 5126,
            "count": 16,
            "max": [
                0.6384187936782837,
                0.6384187340736389,
                0.4299337863922119
            ],
            "min": [
                -0.6384187340736389,
                -0.6384187936782837,
                -1.0
            ],
            "type": "VEC3"
        },
        "accessor_buffer_Cube_Cube.002_2": {
            "bufferView": "bufferView_buffer_Cube_Cube.002_1",
            "byteOffset": 0,
            "byteStride": 2,
            "componentType": 5123,
            "count": 18,
            "max": [
                15
            ],
            "min": [
                0
            ],
            "type": "SCALAR"
        }
    },
    "asset": {
        "profile": {
            "api": "WebGL",
            "version": "1.0.3"
        },
        "version": "1.0"
    },
    "bufferViews": {
        "bufferView_buffer_Cube_Cube.002_0": {
            "buffer": "buffer_combined",
            "byteLength": 384,
            "byteOffset": 0,
            "target": 34962
        },
        "bufferView_buffer_Cube_Cube.002_1": {
            "buffer": "buffer_combined",
            "byteLength": 36,
            "byteOffset": 384,
            "target": 34963
        }
    },
    "buffers": {
        "buffer_combined": {
            "byteLength": 420,
            "type": "arraybuffer",
            "uri": "buffer_combined.bin"
        }
    },
    "extensions": {
        "KHR_materials_common": {
            "lights": {}
        }
    },
    "extensionsUsed": [
        "KHR_materials_common"
    ],
    "materials": {
        "material_None_001.002": {
            "extensions": {
                "KHR_materials_common": {
                    "technique": "PHONG",
                    "values": {
                        "ambient": [
                            1.0,
                            1.0,
                            1.0,
                            1.0
                        ],
                        "diffuse": [
                            0.0,
                            0.0,
                            0.0,
                            0.25
                        ],
                        "doubleSided": false,
                        "emission": [
                            0.0,
                            0.0,
                            0.0,
                            0.25
                        ],
                        "shininess": 50,
                        "specular": [
                            0.03125,
                            0.03125,
                            0.03125,
                            1.0
                        ],
                        "transparency": 0.25,
                        "transparent": true
                    }
                }
            },
            "name": "None_001.002"
        }
    },
    "meshes": {
        "mesh_Cube_Cube.002": {
            "name": "Cube_Cube.002",
            "primitives": [
                {
                    "attributes": {
                        "NORMAL": "accessor_buffer_Cube_Cube.002_1",
                        "POSITION": "accessor_buffer_Cube_Cube.002_0"
                    },
                    "indices": "accessor_buffer_Cube_Cube.002_2",
                    "material": "material_None_001.002",
                    "mode": 4
                }
            ]
        }
    },
    "nodes": {
        "node_Cube_Cube_003": {
            "children": [],
            "meshes": [
                "mesh_Cube_Cube.002"
            ],
            "name": "Cube_Cube_003",
            "rotation": [
                -0.7071068286895752,
                0.0,
                0.0,
                0.7071068286895752
            ],
            "scale": [
                1.0,
                1.0,
                1.0
            ],
            "translation": [
                0.0,
                0.0,
                0.0
            ]
        }
    },
    "samplers": {
        "sampler_default": {}
    },
    "scene": "scene_Scene",
    "scenes": {
        "scene_Scene": {
            "extras": {
                "active_camera": null,
                "background_color": [
                    0.025393519550561905,
                    0.025393519550561905,
                    0.025393519550561905
                ],
                "frames_per_second": 24
            },
            "name": "Scene",
            "nodes": [
                "node_Cube_Cube_003"
            ]
        }
    }
}
